mtllib DangoShop.mtl
v -1.5000 0.0000 -1.0000
v 1.5000 0.0000 -1.0000
v 1.5000 0.0000 1.0000
v -1.5000 0.0000 1.0000
v -1.5000 2.0000 -1.0000
v 1.5000 2.0000 -1.0000
v 1.5000 2.0000 1.0000
v -1.5000 2.0000 1.0000
v -1.7500 1.7500 -1.2500
v 1.7500 1.7500 -1.2500
v 0.0000 3.2500 -1.2500
v -1.7500 1.7500 1.2500
v 1.7500 1.7500 1.2500
v 0.0000 3.2500 1.2500
v -1.4000 0.8000 1.0000
v 1.4000 0.8000 1.0000
v 1.4000 0.8000 1.1000
v -1.4000 0.8000 1.1000
v -1.4000 1.6000 1.0000
v 1.4000 1.6000 1.0000
v 1.4000 1.6000 1.1000
v -1.4000 1.6000 1.1000
v -0.7500 1.7500 1.1500
v 0.7500 1.7500 1.1500
v 0.7500 1.7500 1.2500
v -0.7500 1.7500 1.2500
v -0.7500 2.2500 1.1500
v 0.7500 2.2500 1.1500
v 0.7500 2.2500 1.2500
v -0.7500 2.2500 1.2500
v -2.0500 1.1000 0.9500
v -1.5500 1.1000 0.9500
v -1.5500 1.1000 1.4500
v -2.0500 1.1000 1.4500
v -2.0500 1.9000 0.9500
v -1.5500 1.9000 0.9500
v -1.5500 1.9000 1.4500
v -2.0500 1.9000 1.4500
v 1.5500 1.1000 0.9500
v 2.0500 1.1000 0.9500
v 2.0500 1.1000 1.4500
v 1.5500 1.1000 1.4500
v 1.5500 1.9000 0.9500
v 2.0500 1.9000 0.9500
v 2.0500 1.9000 1.4500
v 1.5500 1.9000 1.4500
v 0.6000 0.2500 1.2500
v 1.4000 0.2500 1.2500
v 1.4000 0.2500 1.7500
v 0.6000 0.2500 1.7500
v 0.6000 0.7500 1.2500
v 1.4000 0.7500 1.2500
v 1.4000 0.7500 1.7500
v 0.6000 0.7500 1.7500
usemtl Wood
f 1 2 3 4
f 5 8 7 6
f 1 5 6 2
f 2 6 7 3
f 3 7 8 4
f 4 8 5 1
f 23 24 25 26
f 27 30 29 28
f 23 27 28 24
f 24 28 29 25
f 25 29 30 26
f 26 30 27 23
f 47 48 49 50
f 51 54 53 52
f 47 51 52 48
f 48 52 53 49
f 49 53 54 50
f 50 54 51 47
usemtl Roof
f 9 10 13 12
f 9 12 14 11
f 10 11 14 13
f 9 11 10
f 12 13 14
usemtl Cloth
f 15 16 17 18
f 19 22 21 20
f 15 19 20 16
f 16 20 21 17
f 17 21 22 18
f 18 22 19 15
usemtl Lantern
f 31 32 33 34
f 35 38 37 36
f 31 35 36 32
f 32 36 37 33
f 33 37 38 34
f 34 38 35 31
f 39 40 41 42
f 43 46 45 44
f 39 43 44 40
f 40 44 45 41
f 41 45 46 42
f 42 46 43 39
